HIERARCHY
ROOT Hips
{
 OFFSET 0.000000 0.000000 0.000000
 CHANNELS 6 Xposition Yposition Zposition Yrotation Xrotation Zrotation
 JOINT Chest
 {
  OFFSET 0.000000 9.585900 0.002600
  CHANNELS 3 Yrotation Xrotation Zrotation
  JOINT Chest2
  {
   OFFSET 0.000000 9.601200 -0.005300
   CHANNELS 3 Yrotation Xrotation Zrotation
   JOINT Chest3
   {
    OFFSET 0.000000 9.561800 0.000000
    CHANNELS 3 Yrotation Xrotation Zrotation
    JOINT Chest4
    {
     OFFSET 0.000000 9.552100 0.000000
     CHANNELS 3 Yrotation Xrotation Zrotation
     JOINT Neck
     {
      OFFSET 0.000000 14.453000 0.000000
      CHANNELS 3 Yrotation Xrotation Zrotation
      JOINT Head
      {
       OFFSET 0.000000 8.936500 -0.011300
       CHANNELS 3 Yrotation Xrotation Zrotation
       End Site
       {
        OFFSET 0.000000 17.073600 -0.006000
       }
      }
     }
     JOINT RightCollar
     {
      OFFSET -2.921100 9.558500 0.000000
      CHANNELS 3 Yrotation Xrotation Zrotation
      JOINT RightShoulder
      {
       OFFSET -13.519700 0.000000 0.000000
       CHANNELS 3 Yrotation Xrotation Zrotation
       JOINT RightElbow
       {
        OFFSET 0.000000 -29.696600 0.000000
        CHANNELS 3 Yrotation Xrotation Zrotation
        JOINT RightWrist
        {
         OFFSET 0.000000 -24.004700 0.000000
         CHANNELS 3 Yrotation Xrotation Zrotation
         End Site
         {
          OFFSET 0.000000 -17.728500 0.000000
         }
        }
       }
      }
     }
     JOINT LeftCollar
     {
      OFFSET 2.921100 9.558500 0.000000
      CHANNELS 3 Yrotation Xrotation Zrotation
      JOINT LeftShoulder
      {
       OFFSET 13.519700 0.000000 0.000000
       CHANNELS 3 Yrotation Xrotation Zrotation
       JOINT LeftElbow
       {
        OFFSET 0.000000 -29.696600 0.000000
        CHANNELS 3 Yrotation Xrotation Zrotation
        JOINT LeftWrist
        {
         OFFSET 0.000000 -24.004700 0.000000
         CHANNELS 3 Yrotation Xrotation Zrotation
         End Site
         {
          OFFSET 0.000000 -17.728500 0.000000
         }
        }
       }
      }
     }
    }
   }
  }
 }
 JOINT RightHip
 {
  OFFSET -7.771700 -0.012900 -0.001300
  CHANNELS 3 Yrotation Xrotation Zrotation
  JOINT RightKnee
  {
   OFFSET 0.000000 -40.869800 0.001200
   CHANNELS 3 Yrotation Xrotation Zrotation
   JOINT RightAnkle
   {
    OFFSET 0.000000 -39.717900 0.002100
    CHANNELS 3 Yrotation Xrotation Zrotation
    JOINT RightToe
    {
     OFFSET 0.000000 -4.965400 11.033500
     CHANNELS 3 Yrotation Xrotation Zrotation
     End Site
     {
      OFFSET 0.000000 -1.423100 5.872300
     }
    }
   }
  }
 }
 JOINT LeftHip
 {
  OFFSET 7.771700 -0.012900 -0.001300
  CHANNELS 3 Yrotation Xrotation Zrotation
  JOINT LeftKnee
  {
   OFFSET 0.000000 -40.869800 0.001200
   CHANNELS 3 Yrotation Xrotation Zrotation
   JOINT LeftAnkle
   {
    OFFSET 0.000000 -39.717900 0.002100
    CHANNELS 3 Yrotation Xrotation Zrotation
    JOINT LeftToe
    {
     OFFSET 0.000000 -4.965400 11.033500
     CHANNELS 3 Yrotation Xrotation Zrotation
     End Site
     {
      OFFSET 0.000000 -1.423100 5.872300
     }
    }
   }
  }
 }
}
MOTION
Frames: 8
Frame Time: 0.008333
0.000000 85.388000 0.000000 0.000000 -5.767877 0.000000 0.000000 11.653817 0.000000 0.000000 -5.885947 0.000000 0.000000 -0.000000 0.000000 0.000000 -0.000000 0.000000 0.000000 12.528835 0.000000 0.000000 0.711642 0.000000 0.000000 -0.000000 0.000000 0.000000 0.000000 -90.000000 0.000000 -2.309062 0.000000 0.000000 2.309062 0.000000 0.000000 -0.000000 0.000000 0.000000 -0.000000 90.000000 0.000000 -2.309062 0.000000 0.000000 2.309062 0.000000 0.000000 8.520406 0.000000 0.000000 1.905762 0.000000 -0.000000 -4.658285 0.000000 0.000000 -0.000000 0.000000 0.000000 8.520406 0.000000 0.000000 1.905762 0.000000 -0.000000 -4.658285 0.000000 0.000000 -0.000000 0.000000
-25.201729 50.842532 7.529025 163.932980 -5.996622 0.541755 3.398515 6.691653 1.408448 0.158409 0.317253 0.025678 0.243705 0.525391 0.019610 3.125338 6.435964 0.524158 1.867892 15.332490 -0.534248 3.728284 -7.261642 -1.666265 2.405424 6.776337 0.376070 -10.968101 -15.276018 -8.318494 -76.811935 -66.042158 104.461248 -3.046740 1.132728 -26.563683 -6.057344 3.644213 -0.576397 24.926224 -7.721693 2.075609 89.549973 -70.744874 -116.618272 3.950299 2.633079 14.235174 -3.584831 -74.350546 -1.350340 -120.183722 83.980850 -118.087813 -2.696000 -14.437745 -1.183405 -0.351489 0.819170 -0.179079 -13.942736 -77.342664 28.320958 103.629271 77.884138 99.835160 -15.626822 -19.369998 -1.040136 -0.289666 -1.246078 -0.135714
-25.196132 50.841298 7.528329 163.918977 -6.012924 0.529051 3.399888 6.694356 1.412904 0.161472 0.320705 0.025303 0.239403 0.520959 0.019315 3.118956 6.440613 0.518425 1.896896 15.358658 -0.536982 3.783234 -7.198949 -1.681904 2.377262 6.766944 0.365052 -10.995733 -15.251121 -8.363951 -76.814079 -66.058781 104.473290 -3.062966 1.130305 -26.638689 -6.043355 3.635902 -0.575074 24.987622 -7.685555 2.162409 89.555717 -70.729432 -116.618720 3.976628 2.647242 14.285117 -3.640853 -74.332867 -1.282983 -120.214955 83.984492 -118.111917 -2.704562 -14.438251 -1.193187 -0.343439 0.816370 -0.174992 -14.013043 -77.321284 28.409579 103.641361 77.875744 99.845732 -15.643957 -19.356835 -1.036927 -0.285001 -1.244176 -0.138563
-25.190426 50.839728 7.529263 163.908661 -6.021711 0.515091 3.404428 6.695321 1.423061 0.139416 0.298992 0.010958 0.254644 0.534975 0.028158 3.109735 6.436415 0.513932 1.927051 15.397630 -0.541679 3.832264 -7.127256 -1.697247 2.376549 6.776162 0.365888 -11.045704 -15.244677 -8.415994 -76.817523 -66.070787 104.484541 -3.078779 1.126316 -26.728346 -6.024082 3.644157 -0.570501 25.034368 -7.667245 2.224733 89.552829 -70.702208 -116.624501 3.968132 2.659523 14.404093 -3.703827 -74.323462 -1.210532 -120.236477 83.987038 -118.128841 -2.707412 -14.437773 -1.202729 -0.342469 0.813976 -0.169563 -14.084592 -77.306819 28.497139 103.626763 77.869245 99.832151 -15.660253 -19.347142 -1.043078 -0.276469 -1.244597 -0.135191
-25.188290 50.838053 7.530028 163.901427 -6.027661 0.523357 3.404023 6.694780 1.410149 0.139853 0.299398 0.010962 0.249038 0.528432 0.023324 3.101978 6.431308 0.509072 1.953311 15.442397 -0.546903 3.874678 -7.046486 -1.711970 2.372323 6.784170 0.367827 -11.093682 -15.244280 -8.470000 -76.820285 -66.081674 104.490068 -3.096214 1.114334 -26.832190 -6.005972 3.656615 -0.561854 25.077746 -7.661039 2.278021 89.600084 -70.736616 -116.605560 4.008104 2.657933 14.488516 -3.762018 -74.322133 -1.163644 -120.322271 83.996585 -118.231936 -2.688943 -14.437500 -1.200095 -0.362659 0.812334 -0.179133 -14.073619 -77.296481 28.490894 103.593760 77.864007 99.795698 -15.670835 -19.332061 -1.048383 -0.271246 -1.253343 -0.134618
-25.183815 50.836490 7.530895 163.886128 -6.039329 0.520196 3.408697 6.694743 1.404988 0.145140 0.305033 0.015508 0.243348 0.521832 0.019047 3.098782 6.427441 0.501890 1.974283 15.481834 -0.544904 3.912959 -6.946304 -1.729627 2.342491 6.777479 0.360637 -11.120391 -15.234795 -8.518908 -76.807868 -66.088493 104.482130 -3.118785 1.091922 -26.956711 -5.991820 3.666069 -0.550832 25.118953 -7.662702 2.324640 89.669602 -70.792018 -116.592905 4.057317 2.650745 14.595689 -3.781464 -74.311450 -1.136168 -120.341180 83.998522 -118.241827 -2.690398 -14.437322 -1.208437 -0.358217 0.812045 -0.177823 -14.113368 -77.277428 28.541687 103.579919 77.856244 99.776014 -15.661858 -19.314593 -1.048351 -0.272260 -1.257384 -0.140116
-25.179653 50.835034 7.532422 163.870370 -6.049613 0.518987 3.415241 6.694419 1.399634 0.144820 0.304653 0.015308 0.240428 0.519818 0.017173 3.097318 6.425106 0.498378 1.989822 15.533307 -0.550356 3.950191 -6.846116 -1.739978 2.323226 6.769935 0.351919 -11.151728 -15.229770 -8.566394 -76.771402 -66.052492 104.479048 -3.115936 1.067423 -27.127952 -5.977861 3.663631 -0.544202 25.156039 -7.660422 2.368555 89.746288 -70.845002 -116.599961 4.092201 2.638590 14.751527 -3.791995 -74.301999 -1.118712 -120.316334 83.994495 -118.202324 -2.692113 -14.437359 -1.223464 -0.343721 0.813055 -0.172977 -14.147642 -77.265229 28.586745 103.567548 77.847138 99.763573 -15.669975 -19.272265 -1.037834 -0.270960 -1.281252 -0.154498
-25.176185 50.833662 7.535675 163.866223 -6.052271 0.518938 3.407182 6.684821 1.390154 0.144279 0.303902 0.014912 0.246357 0.526457 0.020939 3.082764 6.412753 0.487156 2.010173 15.601703 -0.558231 3.984467 -6.749610 -1.741783 2.325006 6.761823 0.341142 -11.186634 -15.222148 -8.606599 -76.731329 -66.060718 104.421097 -3.172101 1.034445 -27.261571 -5.968331 3.637015 -0.544301 25.182447 -7.630120 2.413352 89.894221 -70.918782 -116.654519 4.130828 2.622717 14.929963 -3.828121 -74.301300 -1.090617 -120.347952 84.001076 -118.232296 -2.680671 -14.434999 -1.229583 -0.352789 0.812720 -0.175324 -14.216328 -77.256220 28.649676 103.521150 77.830468 99.711896 -15.670088 -19.236312 -1.047556 -0.291650 -1.290124 -0.155878
